<svg width="16" height="16" viewBox="0 0 16 16" fill="none" xmlns="http://www.w3.org/2000/svg">
<path fill-rule="evenodd" clip-rule="evenodd" d="M5.85905 3.30036C6.76746 2.73151 7.84353 2.4915 8.90758 2.62044C9.97162 2.74937 10.9592 3.23943 11.7055 4.00879C12.3982 4.72291 12.844 5.63755 12.9816 6.61887C13.7134 6.84521 14.3523 7.30812 14.7957 7.93824C15.2847 8.63319 15.502 9.4833 15.4064 10.3277C15.3108 11.172 14.9089 11.952 14.2769 12.52C13.6449 13.088 12.8266 13.4046 11.9768 13.4099L11.9733 13.4099H4.70177C3.67107 13.4529 2.66397 13.0925 1.89446 12.4049C1.12164 11.7144 0.649898 10.7487 0.580257 9.7146C0.510616 8.68054 0.848607 7.66031 1.52186 6.87235C2.15547 6.13081 3.03861 5.65046 4.00086 5.51931C4.3696 4.60393 5.01916 3.82631 5.85905 3.30036ZM12.3913 7.63574C12.2668 7.58652 12.1556 7.50786 12.0676 7.40606C11.9638 7.2861 11.8965 7.13901 11.8734 6.98208C11.8719 6.97161 11.8707 6.96109 11.8697 6.95055C11.7968 6.1436 11.4493 5.38609 10.8851 4.8045C10.321 4.22291 9.57445 3.85246 8.7701 3.75499C7.96575 3.65753 7.15231 3.83896 6.4656 4.26898C5.7789 4.699 5.2605 5.35158 4.99698 6.11776C4.98956 6.13932 4.98086 6.16042 4.97092 6.18094C4.90287 6.32148 4.79578 6.43944 4.66244 6.52071C4.54158 6.59438 4.40379 6.63507 4.26281 6.63913C3.53636 6.7099 2.86524 7.05942 2.39074 7.61476C1.91154 8.17561 1.67096 8.90178 1.72053 9.63781C1.7701 10.3738 2.10587 11.0612 2.65595 11.5527C3.20604 12.0442 3.9267 12.3009 4.66364 12.2676C4.67222 12.2672 4.6808 12.2671 4.68939 12.2671H11.9714C12.5409 12.2631 13.0893 12.0508 13.513 11.67C13.937 11.2889 14.2066 10.7656 14.2708 10.1991C14.3349 9.63256 14.1892 9.06219 13.8611 8.59592C13.533 8.12965 13.0453 7.79984 12.4904 7.66892C12.4561 7.66082 12.4229 7.64966 12.3913 7.63574Z" fill="#253746"/>
</svg>
