<svg width="16" height="16" viewBox="0 0 16 16" fill="none" xmlns="http://www.w3.org/2000/svg">
<path d="M13.9305 14.4819C14.0776 14.4821 14.2227 14.4472 14.3537 14.38C14.4846 14.3129 14.5977 14.2155 14.6835 14.096C14.7693 13.9764 14.8254 13.8382 14.8471 13.6926C14.8687 13.5471 14.8554 13.3984 14.8082 13.2591V13.2602L11.0568 2.14884C10.995 1.96529 10.8771 1.80574 10.7199 1.69268C10.5626 1.57961 10.3739 1.51871 10.1802 1.51855H5.81908C5.6254 1.51871 5.43665 1.57961 5.2794 1.69268C5.12215 1.80574 5.00433 1.96529 4.94252 2.14884L1.19168 13.2596C1.14455 13.399 1.13131 13.5475 1.15305 13.693C1.17478 13.8385 1.23087 13.9767 1.31667 14.0962C1.40246 14.2156 1.51549 14.313 1.64639 14.38C1.77729 14.4471 1.9223 14.482 2.06939 14.4819H4.77852C4.97229 14.4819 5.16117 14.421 5.31854 14.308C5.4759 14.1949 5.59381 14.0353 5.65565 13.8516L6.21394 12.1991L9.04078 14.2991C9.20078 14.4179 9.39392 14.4819 9.59278 14.4819M7.8305 7.32139L9.90135 13.4579C9.91703 13.5043 9.92145 13.5537 9.91427 13.6021C9.90708 13.6505 9.88849 13.6965 9.86002 13.7363C9.83155 13.7761 9.79402 13.8086 9.75054 13.831C9.70705 13.8534 9.65886 13.8652 9.60992 13.8654L9.59278 13.8648C9.52654 13.8649 9.46202 13.8436 9.40878 13.8042L4.10195 9.86137H6.87508M10.4825 13.8648C10.5488 13.6785 10.5568 13.4682 10.4865 13.2602L6.73679 2.14884C6.73548 2.14502 6.73415 2.14121 6.73279 2.13741H10.1808C10.2453 2.13731 10.3082 2.15744 10.3607 2.19495C10.4132 2.23247 10.4526 2.28548 10.4733 2.34655L14.223 13.4579C14.2492 13.5354 14.2435 13.62 14.2073 13.6933C14.1711 13.7666 14.1073 13.8225 14.0299 13.8488" fill="#253746"/>
</svg>
