<svg width="16" height="16" viewBox="0 0 16 16" fill="none" xmlns="http://www.w3.org/2000/svg">
<path fill-rule="evenodd" clip-rule="evenodd" d="M4.81278 7.21668C4.77819 7.10689 4.75843 6.95717 4.75843 6.77252H4.74855V5.15557C4.74855 4.60661 4.61019 4.19738 4.33841 3.92789C4.0617 3.6584 3.6318 3.52365 3.04378 3.52365C2.77201 3.52365 2.51506 3.5536 2.27294 3.61847C2.03081 3.67836 1.82328 3.75322 1.65033 3.84305C1.58115 3.87798 1.53668 3.91292 1.51197 3.94785C1.48726 3.98279 1.47738 4.04267 1.47738 4.12252V4.36706C1.47738 4.47186 1.51197 4.52177 1.58115 4.52177C1.60092 4.52177 1.62562 4.51678 1.66021 4.5068C1.6948 4.49682 1.7541 4.47685 1.83316 4.44192C2.0061 4.37205 2.18399 4.31716 2.36682 4.27224C2.54965 4.22733 2.72754 4.20736 2.90049 4.20736C3.28097 4.20736 3.5478 4.28222 3.70592 4.43693C3.8591 4.59164 3.93817 4.85614 3.93817 5.23542V5.59974C3.74051 5.55482 3.55274 5.5149 3.36991 5.48994C3.18708 5.46499 3.01414 5.45002 2.84613 5.45002C2.33717 5.45002 1.93693 5.57977 1.6355 5.83928C1.33408 6.09879 1.18584 6.44314 1.18584 6.86734C1.18584 7.26659 1.30938 7.58599 1.5515 7.82554C1.79363 8.06508 2.1247 8.18486 2.53977 8.18486C3.12285 8.18486 3.6071 7.95529 3.99252 7.49616C4.04688 7.61094 4.09629 7.70576 4.1457 7.7906C4.19512 7.87045 4.25441 7.9503 4.32359 8.02516C4.373 8.07007 4.42242 8.09503 4.47183 8.09503C4.51136 8.09503 4.55583 8.08006 4.60031 8.05011L4.91161 7.84051C4.97585 7.7906 5.00549 7.7407 5.00549 7.69079C5.00549 7.65586 4.99561 7.61593 4.97091 7.57601C4.90173 7.44625 4.85231 7.32648 4.81278 7.21668ZM3.2612 7.44126C3.08332 7.50115 2.91531 7.53109 2.75225 7.53109C2.52494 7.53109 2.352 7.4712 2.23341 7.34644C2.10987 7.22667 2.05058 7.052 2.05058 6.81744C2.05058 6.56791 2.12964 6.37827 2.2927 6.24352C2.45577 6.10878 2.69789 6.0439 3.02896 6.0439C3.18214 6.0439 3.33532 6.05388 3.49345 6.07384C3.65157 6.0938 3.80475 6.12375 3.94805 6.15868V6.36829C3.94805 6.53797 3.92828 6.68269 3.89864 6.80247C3.86899 6.92224 3.80969 7.02704 3.73063 7.12186C3.59721 7.27158 3.43909 7.38137 3.2612 7.44126ZM6.53237 8.02017C6.5719 8.0551 6.63119 8.07007 6.72014 8.07007H7.14509C7.23404 8.07007 7.30321 8.0551 7.34275 8.02017C7.38228 7.98523 7.41192 7.92036 7.43663 7.82055L8.1976 4.60661L8.9635 7.82554C8.98327 7.92535 9.01786 7.99022 9.05739 8.02516C9.09692 8.06009 9.16116 8.07506 9.25504 8.07506H9.68C9.764 8.07506 9.82824 8.0551 9.86777 8.02516C9.9073 7.99522 9.94189 7.93034 9.97153 7.83053L11.1624 3.97281C11.1822 3.91791 11.192 3.87798 11.197 3.84804C11.1977 3.84368 11.1984 3.83942 11.1991 3.83525C11.2033 3.81082 11.2069 3.78951 11.2069 3.76819C11.2069 3.68335 11.1624 3.64343 11.0833 3.64343H10.6238C10.5348 3.64343 10.4706 3.66339 10.4311 3.69333C10.3965 3.72328 10.3619 3.78815 10.3323 3.88797L9.4774 7.23166L8.69667 3.88797C8.67691 3.79314 8.64232 3.72328 8.60279 3.69333C8.56325 3.6584 8.49902 3.64343 8.40513 3.64343H8.00983C7.92088 3.64343 7.8517 3.66339 7.81217 3.69333C7.77264 3.72328 7.74299 3.78815 7.71829 3.88797L6.94744 7.19173L6.11729 3.88797C6.08765 3.79314 6.058 3.72328 6.01847 3.69333C5.98388 3.6584 5.91964 3.64343 5.82576 3.64343H5.34151C5.26244 3.64343 5.22291 3.68834 5.22291 3.76819C5.22291 3.80313 5.23774 3.868 5.26739 3.96781L6.4286 7.82554C6.45825 7.92036 6.49284 7.99022 6.53237 8.02017ZM12.3088 8.11499C12.5559 8.17488 12.8128 8.20482 13.0698 8.20482C13.3218 8.20482 13.554 8.16989 13.7764 8.10002C13.9888 8.03514 14.1717 7.94531 14.3249 7.82055C14.478 7.70077 14.5966 7.55105 14.6856 7.38137C14.7696 7.21169 14.814 7.01706 14.814 6.80247C14.814 6.54296 14.7399 6.3084 14.5867 6.10378C14.4336 5.89917 14.1766 5.73947 13.8208 5.62469L13.1192 5.40011C12.8573 5.31527 12.6744 5.22045 12.5756 5.12563C12.4768 5.03081 12.4274 4.91104 12.4274 4.7713C12.4274 4.56668 12.5064 4.42196 12.6596 4.32714C12.8128 4.23232 13.0352 4.1874 13.3168 4.1874C13.6677 4.1874 13.9839 4.25228 14.2656 4.38203C14.3496 4.42196 14.4138 4.44192 14.4533 4.44192C14.5274 4.44192 14.567 4.38702 14.567 4.28222V4.04766C14.567 3.9778 14.5522 3.9229 14.5225 3.88298C14.4929 3.83806 14.4434 3.79814 14.3743 3.75821C14.3249 3.72827 14.2557 3.69832 14.1667 3.66838C14.0778 3.63844 13.9839 3.61348 13.8851 3.58853C13.7813 3.56857 13.6775 3.54861 13.5639 3.53363C13.4552 3.51866 13.3415 3.51367 13.2328 3.51367C13.0154 3.51367 12.8079 3.53862 12.6102 3.59851C12.4126 3.6584 12.2445 3.74324 12.0963 3.85802C11.9481 3.96781 11.8295 4.10755 11.7405 4.26725C11.6516 4.42695 11.6071 4.6116 11.6071 4.8212C11.6071 5.08071 11.6911 5.32525 11.8542 5.54484C12.0172 5.76942 12.2841 5.9391 12.6448 6.05388L13.3613 6.27846C13.6034 6.3583 13.7714 6.44314 13.8604 6.53797C13.9493 6.63279 13.9938 6.74757 13.9938 6.88731C13.9938 7.09192 13.9048 7.25162 13.7368 7.36141C13.5688 7.4712 13.3267 7.5261 13.0154 7.5261C12.8177 7.5261 12.625 7.50614 12.4274 7.46621C12.2347 7.42629 12.0518 7.3664 11.8838 7.29154C11.8663 7.28447 11.8494 7.2774 11.8336 7.27077C11.8048 7.25869 11.7794 7.24808 11.7603 7.24164C11.7306 7.23166 11.701 7.22667 11.6714 7.22667C11.5972 7.22667 11.5577 7.27657 11.5577 7.38137V7.63589C11.5577 7.68081 11.5676 7.73071 11.5874 7.77563C11.6071 7.82055 11.6615 7.87045 11.7405 7.91537C11.869 7.99022 12.0617 8.0551 12.3088 8.11499ZM14.6804 9.85224C14.4729 9.58275 13.3068 9.72249 12.778 9.78736C12.6199 9.80733 12.5952 9.66759 12.7385 9.56279C13.6675 8.90403 15.1943 9.09367 15.3722 9.31326C15.5501 9.53784 15.3228 11.0799 14.4531 11.8185C14.3197 11.9333 14.1913 11.8734 14.2506 11.7237C14.4482 11.2296 14.888 10.1167 14.6804 9.85224ZM14.0035 10.6304C12.3778 11.8431 10.0159 12.4869 7.98499 12.4869C5.13879 12.4869 2.57423 11.4239 0.637231 9.65723C0.484049 9.51749 0.622407 9.32785 0.805236 9.43765C2.90036 10.6653 5.48468 11.4089 8.15794 11.4089C9.96153 11.4089 11.943 11.0296 13.7664 10.2511C14.0381 10.1263 14.2704 10.4308 14.0035 10.6304Z" fill="#253746"/>
</svg>
