<svg width="16" height="16" viewBox="0 0 16 16" fill="none" xmlns="http://www.w3.org/2000/svg">
<path d="M6.30709 5.14819C7.4207 4.43674 8.89345 4.45329 9.98401 5.27698L11.8057 3.46279C9.44881 1.39593 5.76523 1.65917 3.66609 4.03691C3.35022 4.39454 3.07818 4.79957 2.85782 5.23082C3.40174 4.96814 4.0112 4.81932 4.65548 4.8155C5.23038 4.81349 5.7913 4.92946 6.30709 5.14819Z" fill="#253746"/>
<path d="M13.5836 6.27853C13.3557 5.43888 12.9431 4.66416 12.3798 4.00929L10.5562 5.82543C10.9824 6.39385 11.2132 7.09383 11.1998 7.81884V8.14039C12.0904 8.14039 12.8128 8.86274 12.8128 9.75339C12.8128 10.644 12.0904 11.3487 11.1998 11.3487H8.4832V13.9323H11.1998C13.5168 13.9506 15.4101 12.1045 15.4284 9.78744C15.4396 8.3827 14.7467 7.06571 13.5836 6.27853Z" fill="#253746"/>
<path d="M7.69082 13.9321V11.3492H4.74259C4.51403 11.3492 4.28875 11.2995 4.08115 11.2045C3.26908 10.8378 2.90814 9.88215 3.27488 9.07008C3.64162 8.25802 4.59711 7.89717 5.40918 8.26391C5.76675 8.42567 6.05359 8.71186 6.21535 9.07008L8.08703 7.1984C7.29068 6.15712 6.05294 5.54873 4.7425 5.55331C2.42483 5.56706 0.557734 7.45708 0.571487 9.77475C0.579345 11.0688 1.18381 12.2869 2.20937 13.0761C2.93888 13.6267 3.82912 13.9361 4.74259 13.9321H7.69082Z" fill="#253746"/>
</svg>
