<svg width="16" height="16" viewBox="0 0 16 16" fill="none" xmlns="http://www.w3.org/2000/svg">
<g clip-path="url(#clip0_2237_774)">
<path d="M7.99956 0.571289C7.76117 0.571313 7.56788 0.786048 7.5679 1.05093C7.5679 1.055 7.56874 1.05888 7.56882 1.06292C7.56847 1.09891 7.56673 1.14227 7.5679 1.17361C7.57359 1.32639 7.60689 1.44331 7.62693 1.58407C7.66325 1.88533 7.69367 2.13506 7.6749 2.36718C7.65664 2.45471 7.59217 2.53475 7.5347 2.5904L7.52455 2.77303C7.2655 2.79449 7.00472 2.8338 6.74424 2.89294C5.62341 3.14744 4.6584 3.7248 3.92369 4.50435C3.87602 4.47183 3.79262 4.41199 3.76782 4.39366C3.69075 4.40407 3.61285 4.42785 3.5114 4.36876C3.31823 4.23872 3.14229 4.05922 2.9294 3.843C2.83185 3.73957 2.76121 3.64108 2.64531 3.54138C2.61899 3.51874 2.57883 3.48811 2.54939 3.46482C2.45878 3.39258 2.35191 3.3549 2.2487 3.35137C2.11601 3.34682 1.98826 3.39871 1.90467 3.50356C1.75605 3.68997 1.80363 3.97488 2.01074 4.14001C2.01284 4.14168 2.01508 4.14298 2.01719 4.14462C2.04565 4.16769 2.0805 4.19725 2.10666 4.21657C2.22965 4.30737 2.34199 4.35386 2.46453 4.42595C2.7227 4.58539 2.93673 4.7176 3.10649 4.877C3.17278 4.94766 3.18437 5.07219 3.19319 5.12604L3.33154 5.24964C2.5909 6.36429 2.24813 7.7411 2.4507 9.14396L2.26992 9.19654C2.22227 9.25807 2.15494 9.35489 2.08452 9.38378C1.86242 9.45374 1.61245 9.47943 1.31067 9.51107C1.16899 9.52285 1.04674 9.51582 0.896536 9.54428C0.863477 9.55054 0.817414 9.56254 0.781242 9.57103C0.779985 9.57129 0.77881 9.57166 0.777553 9.57195C0.775581 9.57241 0.772991 9.57336 0.771096 9.57379C0.516671 9.63527 0.353227 9.86913 0.405845 10.0996C0.458476 10.33 0.706993 10.4702 0.962945 10.415C0.964793 10.4146 0.967476 10.4145 0.969402 10.4141C0.972291 10.4134 0.974835 10.412 0.977703 10.4113C1.01338 10.4035 1.0581 10.3948 1.08931 10.3864C1.23698 10.3469 1.34393 10.2888 1.47669 10.2379C1.76231 10.1355 1.99887 10.0499 2.22933 10.0165C2.32559 10.009 2.427 10.0759 2.47745 10.1042L2.66561 10.0719C3.0986 11.4144 4.00602 12.4995 5.15503 13.1803L5.07663 13.3685C5.10489 13.4416 5.13606 13.5404 5.11501 13.6126C5.03122 13.8299 4.88771 14.0592 4.72429 14.3149C4.64517 14.433 4.56419 14.5247 4.49278 14.6598C4.4757 14.6922 4.45394 14.7419 4.43744 14.7761C4.3265 15.0134 4.40788 15.2869 4.62099 15.3895C4.83544 15.4927 5.10163 15.3838 5.21683 15.1459C5.21701 15.1456 5.21759 15.1454 5.21775 15.145C5.21787 15.1448 5.21763 15.1444 5.21775 15.1441C5.23416 15.1104 5.2574 15.066 5.27125 15.0343C5.33241 14.8942 5.35276 14.7741 5.39576 14.6386C5.50998 14.3517 5.57273 14.0507 5.72995 13.8631C5.77301 13.8117 5.8432 13.792 5.91597 13.7725L6.01374 13.5954C7.01543 13.9799 8.13667 14.0831 9.25673 13.8288C9.51224 13.7708 9.75891 13.6957 9.99737 13.6056C10.0249 13.6543 10.0759 13.748 10.0896 13.7716C10.1636 13.7956 10.2443 13.8081 10.3101 13.9053C10.4277 14.1063 10.5081 14.3441 10.6061 14.6313C10.6491 14.7668 10.6704 14.8868 10.7316 15.027C10.7455 15.0589 10.7686 15.1038 10.7851 15.1376C10.9 15.3763 11.1671 15.4855 11.3818 15.3821C11.5949 15.2794 11.6764 15.006 11.5654 14.7687C11.5489 14.7345 11.5262 14.6848 11.5091 14.6525C11.4377 14.5173 11.3567 14.4265 11.2776 14.3084C11.1142 14.0527 10.9786 13.8404 10.8948 13.6231C10.8598 13.511 10.9007 13.4413 10.928 13.3685C10.9117 13.3498 10.8767 13.2439 10.8561 13.1942C12.0502 12.4891 12.931 11.3635 13.3446 10.0636C13.4004 10.0724 13.4975 10.0895 13.5291 10.0959C13.594 10.0531 13.6537 9.99718 13.7707 10.0064C14.0012 10.0397 14.2377 10.1253 14.5234 10.2278C14.6561 10.2786 14.7631 10.3377 14.9107 10.3772C14.9419 10.3856 14.9867 10.3933 15.0223 10.4012C15.0252 10.4019 15.0278 10.4033 15.0306 10.4039C15.0326 10.4044 15.0353 10.4044 15.0371 10.4049C15.2931 10.46 15.5416 10.3199 15.5942 10.0894C15.6468 9.85898 15.4834 9.62506 15.2289 9.56365C15.1919 9.55523 15.1395 9.54094 15.1035 9.53413C14.9533 9.50569 14.8311 9.5127 14.6894 9.50093C14.3876 9.46931 14.1376 9.44359 13.9155 9.37364C13.825 9.33851 13.7605 9.23074 13.7292 9.18639L13.5549 9.13566C13.6453 8.48174 13.6209 7.80118 13.4645 7.12024C13.3066 6.43296 13.0277 5.80438 12.6556 5.25056C12.7003 5.20991 12.7848 5.13513 12.8087 5.11313C12.8157 5.03567 12.8097 4.95446 12.8899 4.8687C13.0596 4.70929 13.2737 4.5771 13.5318 4.41765C13.6544 4.34555 13.7676 4.29908 13.8906 4.20827C13.9184 4.18773 13.9564 4.15521 13.9856 4.13171C14.1927 3.96652 14.2404 3.68163 14.0917 3.49526C13.943 3.30889 13.6549 3.29134 13.4479 3.45652C13.4184 3.47986 13.3784 3.51031 13.352 3.53308C13.2361 3.63278 13.1645 3.73126 13.067 3.8347C12.8541 4.05093 12.6781 4.23133 12.485 4.36138C12.4012 4.41012 12.2786 4.39325 12.223 4.38998L12.0588 4.50712C11.1226 3.52539 9.848 2.89772 8.4755 2.7758C8.47166 2.71828 8.46663 2.61431 8.46535 2.58302C8.40916 2.52925 8.34129 2.48334 8.32423 2.36718C8.30545 2.13506 8.3368 1.88533 8.37312 1.58407C8.39316 1.44331 8.42646 1.32639 8.43215 1.17361C8.43344 1.13888 8.43136 1.08848 8.43122 1.05093C8.4312 0.786048 8.23796 0.571265 7.99956 0.571289ZM7.45907 3.91956L7.33086 6.18402L7.32164 6.18863C7.31304 6.39121 7.14632 6.55297 6.94163 6.55297C6.85778 6.55297 6.78039 6.52605 6.7175 6.48011L6.71381 6.48195L4.85711 5.1657C5.42775 4.60456 6.15764 4.18988 6.99881 3.99888C7.15247 3.96399 7.30606 3.93811 7.45907 3.91956ZM8.54098 3.91956C9.52306 4.04035 10.4313 4.48506 11.1273 5.16663L9.28255 6.47457L9.2761 6.47181C9.11236 6.5914 8.88167 6.56172 8.75405 6.4017C8.70177 6.33615 8.67433 6.25907 8.67104 6.18125L8.66919 6.18033L8.54098 3.91956ZM4.1838 6.01153L5.87908 7.52794L5.87723 7.53716C6.03025 7.67019 6.05282 7.90104 5.9252 8.06108C5.87292 8.12664 5.80294 8.17061 5.72781 8.19114L5.72597 8.19851L3.55291 8.82574C3.44231 7.81435 3.68067 6.83121 4.1838 6.01153ZM11.8033 6.01245C12.0552 6.42074 12.246 6.87676 12.3595 7.37113C12.4717 7.85958 12.4999 8.34715 12.4536 8.81836L10.2695 8.18929L10.2676 8.18006C10.072 8.12661 9.95184 7.92765 9.99738 7.72809C10.016 7.64635 10.0594 7.57719 10.1182 7.52609L10.1173 7.52148L11.8033 6.01245ZM7.65184 7.64508H8.34637L8.77803 8.18468L8.62307 8.85802L7.99956 9.1578L7.37421 8.8571L7.21925 8.18375L7.65184 7.64508ZM9.87839 9.4917C9.90791 9.49021 9.93729 9.49287 9.96602 9.49816L9.96971 9.49355L12.2175 9.87357C11.8885 10.7978 11.259 11.5985 10.418 12.1343L9.54542 10.0267L9.54819 10.023C9.46804 9.83675 9.54825 9.61834 9.73266 9.52952C9.77987 9.50678 9.8292 9.49419 9.87839 9.4917ZM6.10321 9.50092C6.27474 9.50333 6.4286 9.62239 6.46846 9.79701C6.48712 9.87876 6.47804 9.95976 6.44725 10.0313L6.4537 10.0396L5.59038 12.126C4.78323 11.6081 4.14032 10.8325 3.79641 9.88095L6.02481 9.50277L6.0285 9.50738C6.05343 9.5028 6.0787 9.50058 6.10321 9.50092ZM7.98573 10.415C8.04548 10.4128 8.10611 10.4251 8.16374 10.4528C8.23929 10.4892 8.29765 10.5465 8.33438 10.6152H8.34268L9.4412 12.6001C9.29863 12.6479 9.15206 12.6888 9.00216 12.7228C8.16202 12.9136 7.32455 12.8558 6.56623 12.5974L7.66198 10.6161H7.66383C7.72958 10.4932 7.85427 10.4198 7.98573 10.415Z" fill="#253746"/>
</g>
<defs>
<clipPath id="clip0_2237_774">
<rect width="16" height="16" fill="white"/>
</clipPath>
</defs>
</svg>
